<svg width="126" height="32" viewBox="0 0 126 32" fill="none" xmlns="http://www.w3.org/2000/svg">
<g clip-path="url(#clip0_1550_39269)">
<path d="M74.1892 9.53824H68.9495C68.9495 9.53824 68.9414 9.54363 68.9414 9.54633V23.0309H71.3634V20.0961H74.496L75.567 23.0309H78.5408L77.0203 19.3759C77.7065 18.9524 78.2743 18.3616 78.6726 17.6603C78.9391 17.1936 79.0763 16.7674 79.1732 16.2172C79.2647 15.7046 79.2997 15.1813 79.2997 14.6607C79.2997 11.8311 77.0122 9.53824 74.1892 9.53824ZM75.7258 17.0183C75.2333 17.5146 74.5498 17.8194 73.7963 17.8194H71.3608V12.349H73.7963C75.3033 12.349 76.5251 13.5736 76.5251 15.0842C76.5251 15.8395 76.2183 16.522 75.7258 17.0183Z" fill="white"/>
<path d="M111.244 9.75403H108.66V23.0336H111.244V9.75403Z" fill="white"/>
<path d="M122.895 9.75941C121.889 9.69467 120.974 10.0777 120.323 10.7278C120.277 10.7737 120.234 10.8195 120.191 10.8654C119.83 11.27 119.214 11.27 118.853 10.8654C118.81 10.8168 118.767 10.771 118.721 10.7278C118.073 10.0777 117.155 9.69467 116.149 9.75941C114.386 9.8727 113.043 11.3941 113.043 13.1636V23.0309H115.731V13.9378C115.731 13.3282 116.216 12.7077 116.816 12.6133C117.255 12.5459 117.658 12.6996 117.935 12.9775C118.17 13.2095 118.315 13.5332 118.315 13.8919V23.0282H120.721V13.8919C120.721 13.5332 120.866 13.2095 121.1 12.9775C121.377 12.6969 121.781 12.5459 122.22 12.6133C122.82 12.7077 123.304 13.3282 123.304 13.9378V23.0309H125.993V13.1636C125.993 11.3941 124.65 9.8727 122.887 9.75941H122.895Z" fill="white"/>
<path d="M87.8581 9.50586C84.1308 9.50586 81.1113 12.5351 81.1113 16.2684C81.1113 20.0017 84.1308 23.0309 87.8581 23.0309C91.5853 23.0309 94.6048 20.0044 94.6048 16.2684C94.6048 12.5324 91.5826 9.50586 87.8581 9.50586ZM87.8581 20.5007C85.5275 20.5007 83.6383 18.6071 83.6383 16.2711C83.6383 13.9351 85.5275 12.0415 87.8581 12.0415C90.1886 12.0415 92.0778 13.9351 92.0778 16.2711C92.0778 18.6071 90.1886 20.5007 87.8581 20.5007Z" fill="white"/>
<path d="M62.3373 20.5007C60.0068 20.5007 58.1176 18.6071 58.1176 16.2711C58.1176 13.9351 60.0068 12.0415 62.3373 12.0415C63.5053 12.0415 64.5629 12.5162 65.3245 13.2877L67.1114 11.4966C65.8923 10.2665 64.2023 9.50854 62.3346 9.50854C58.6074 9.50854 55.5879 12.5378 55.5879 16.2711C55.5879 20.0044 58.6074 23.0336 62.3346 23.0336C64.0731 23.0336 65.6555 22.3754 66.8531 21.2938L65.0581 19.4946C64.3234 20.1231 63.3707 20.498 62.3319 20.498L62.3373 20.5007Z" fill="white"/>
<path d="M29.3578 10.9733C27.3691 8.98254 24.4841 8.44035 22.0083 9.344C22.272 8.5914 22.4066 7.80105 22.4066 7.01339C22.4066 5.21688 21.723 3.42307 20.3559 2.05275C17.9931 -0.315618 14.36 -0.636616 11.6527 1.09516C10.8561 1.73445 10.0972 2.41421 9.37599 3.13713L0 12.5351L0.034985 12.5702L0 12.6052L11.7523 24.3581L15.5953 20.5088L15.388 20.3011L15.423 20.266L13.7518 18.5936L11.5989 16.4356L7.74515 12.5702L14.1447 6.15559C15.2158 5.42458 16.6852 5.53518 17.6352 6.48738C18.1734 7.02688 18.4398 7.73361 18.4398 8.43765C18.4398 9.14169 18.1734 9.84842 17.6352 10.3852L14.9655 13.0611L16.1685 14.2696L17.1158 15.2164L18.9915 17.0965L21.7903 14.2911C22.8641 13.2149 24.6053 13.2149 25.679 14.2911C26.2173 14.8306 26.4864 15.5347 26.4864 16.2414C26.4864 16.9481 26.2173 17.6522 25.679 18.1917L22.8829 20.9943L19.484 24.4012L15.7137 28.1804L19.519 31.9946L29.9768 21.5122C31.3412 20.1446 32.0275 18.3481 32.0275 16.5516C32.0275 14.7551 30.7223 12.3382 29.3578 10.9679V10.9733Z" fill="white"/>
<path d="M106.851 19.0009C106.851 17.663 106.062 16.5112 104.929 15.9798C105.271 15.8179 105.58 15.5967 105.844 15.3324C106.447 14.7281 106.816 13.8973 106.818 12.9775C106.818 11.386 105.707 10.0561 104.216 9.72704C103.734 9.67309 103.252 9.64612 102.768 9.64612H96.4734V9.6704H96.4492V17.431H96.5057V17.5686H99.0354V17.4283H99.0596V16.3035V14.8549V12.26H103.357C103.963 12.376 104.418 12.9074 104.418 13.5467C104.418 13.9081 104.27 14.2345 104.036 14.4719C103.801 14.7093 103.473 14.8549 103.113 14.8549H101.32V15.6669V16.3035V17.5659H103.199C103.92 17.5659 104.504 18.1512 104.504 18.8741C104.504 19.2356 104.359 19.562 104.122 19.7994C103.885 20.0367 103.559 20.1824 103.199 20.1824H101.32H99.0381H96.5057V22.745H103.527C104.445 22.745 105.276 22.3727 105.876 21.7685C106.476 21.1643 106.851 19.9154 106.851 18.9955V19.0009Z" fill="white"/>
<path d="M12.7148 24.8814L14.4856 23.1065L14.8624 23.4922L13.541 24.8167L14.3242 25.6016L15.5217 24.4013L15.8985 24.7789L14.7009 25.9793L15.7962 27.0771L15.3522 27.5222L12.7148 24.8787V24.8814Z" fill="white"/>
<path d="M14.8809 22.7126L15.3249 22.2675L17.9622 24.9111L17.5182 25.3561L14.8809 22.7126Z" fill="white"/>
<path d="M17.0887 20.5007C17.4277 20.1608 17.7668 19.9774 18.1086 19.9504C18.4504 19.9235 18.7626 20.0503 19.0451 20.3362C19.3277 20.6221 19.4784 20.9566 19.4596 21.3073C19.4407 21.6579 19.2604 22.0032 18.9213 22.3404L18.297 22.9662L19.099 23.7701L18.6549 24.2151L16.0176 21.5716L17.086 20.5007H17.0887ZM18.5419 21.9574C18.7464 21.7524 18.8594 21.55 18.881 21.3504C18.9025 21.1481 18.8218 20.9566 18.6361 20.7678C18.4504 20.579 18.2701 20.5115 18.0709 20.5385C17.8718 20.5628 17.6726 20.6788 17.4681 20.8811L16.8438 21.5069L17.9175 22.5832L18.5419 21.9574ZM18.7653 22.1489L19.2012 21.7119L20.8321 22.0329L20.3261 22.54L18.7626 22.1516L18.7653 22.1489Z" fill="white"/>
<path d="M18.741 18.8418L20.6248 16.9536L21.0042 17.3339L19.5645 18.777L20.3072 19.5215L21.5963 18.2295L21.9731 18.6071L20.684 19.8992L21.4402 20.6572L22.923 19.1709L23.3025 19.5512L21.3756 21.4826L18.7383 18.8391L18.741 18.8418Z" fill="white"/>
<path d="M26.0469 2.8755H27.0534V6.05041H27.7854V2.8755H28.7919V2.32791H26.0469V2.8755Z" fill="white"/>
<path d="M31.636 2.32791L30.8852 5.40302L30.1317 2.32791H29.0391V6.05041H29.7657V3.27742L30.4788 5.89396H31.2916L32.0047 3.26663V6.05041H32.7313V2.32791H31.636Z" fill="white"/>
<path d="M48.273 10.7494C47.6622 10.1344 46.8117 9.75403 45.8752 9.75403C44.7261 9.75403 43.5097 10.3259 42.8961 11.2026C42.5974 11.6261 42.3686 11.6261 42.0699 11.2026C41.4563 10.3259 40.2372 9.75403 39.0881 9.75403C38.1516 9.75403 37.3039 10.1344 36.6903 10.7494C36.0767 11.3644 35.6973 12.2168 35.6973 13.1528V20.0934H38.3642V13.544C38.3642 12.821 38.9482 12.2357 39.6667 12.2357C40.0273 12.2357 40.353 12.3814 40.5898 12.6187C40.8266 12.8561 40.9719 13.1825 40.9719 13.544V15.6102H43.9941V13.544C43.9941 13.1825 44.1394 12.8561 44.3762 12.6187C44.6131 12.3814 44.9172 12.2438 45.2643 12.2357C45.999 12.2168 46.6018 12.8615 46.6018 13.5979V20.0907H49.2661V13.1501C49.2661 12.2114 48.8866 11.3617 48.273 10.7467V10.7494Z" fill="white"/>
<path d="M53.7756 9.75403H51.1113V23.0336H53.7756V9.75403Z" fill="white"/>
</g>
<defs>
<clipPath id="clip0_1550_39269">
<rect width="126" height="32" fill="white"/>
</clipPath>
</defs>
</svg>
