<?xml version="1.0" encoding="UTF-8" standalone="no"?>
<svg
   width="443.03168mm"
   height="109.63118mm"
   viewBox="0 0 1255.8383 310.76554"
   version="1.1"
   id="svg28"
   xmlns="http://www.w3.org/2000/svg"
   xmlns:svg="http://www.w3.org/2000/svg">
  <defs
     id="defs3">
    <style
       id="style1">.h{fill:none;}.i{fill:#fff;}.j{fill:#7dc6dd;}.k{fill:#36697f;}.l{fill:#37a5cc;}.m{clip-path:url(#f);}.n{clip-path:url(#e);}.o{clip-path:url(#g);}</style>
  </defs>
  <g
     id="g3">
    <g
       id="g29"
       transform="scale(4)">
      <g
         id="a">
        <g
           id="g8">
          <g
             id="g1"
             transform="translate(176.31466)" />
        </g>
      </g>
      <g
         id="b">
        <g
           id="c">
          <path
             id="polygon8"
             d="m 297.1374,16.3181 8.6945,9.5767 h 8.1276 L 302.2407,13.4514 313.9595,0.693 h -7.6549 l -9.1672,10.2382 V 0.693 h -6.4264 l 0.0314,25.2018 h 6.395 z" />
          <path
             d="m 280.3467,11.0572 -5.8594,-0.6616 c -3.4337,-0.378 -4.2842,-1.2286 -4.2842,-2.3941 0,-1.2916 1.7641,-2.4572 5.1978,-2.4572 3.3077,0 5.0403,1.2287 5.3554,3.0872 h 6.3004 C 286.7417,3.3077 282.2684,0 275.7475,0 c -7.7496,0 -11.6557,3.0872 -11.6557,8.537 0,4.4419 2.5831,6.521 7.9385,7.088 l 5.9539,0.63 c 2.2682,0.252 3.3077,1.1341 3.3077,2.2682 0,1.2916 -1.512,2.4571 -5.1663,2.4571 -4.2213,0 -5.9224,-1.071 -6.2059,-3.2132 h -6.1744 c 0.2834,5.7963 4.0637,8.7576 12.1598,8.7576 7.4029,0 11.5297,-3.2447 11.5297,-8.1276 0,-4.2528 -2.4571,-6.8044 -7.088,-7.34 z"
             id="path9" />
          <path
             id="polygon9"
             d="M 247.0491,10.3956 V 6.1428 h 13.8608 V 0.693 h -20.2873 v 25.2018 h 20.2873 V 20.4449 H 247.0491 V 15.877 h 11.1517 v -5.4814 z" />
          <path
             d="m 225.5016,0.693 h -11.7818 v 25.2018 h 11.7818 c 9.0411,0 11.5297,-3.3707 11.5297,-12.7899 0,-8.852 -2.3941,-12.4118 -11.5297,-12.4118 z m -0.252,19.7519 h -5.1033 V 6.1428 h 5.1033 c 4.0323,0 5.2294,1.1027 5.2294,6.962 0,5.3555 -1.3546,7.3401 -5.2294,7.3401 z"
             id="path10" />
          <path
             d="m 196.2676,0 c -9.1671,0 -13.9239,5.6389 -13.9239,13.2309 0,7.6234 4.7568,13.2939 13.9239,13.2939 9.1986,0 13.9555,-5.6704 13.9555,-13.2939 C 210.2231,5.6389 205.4663,0 196.2676,0 Z m 0,20.8544 c -4.7568,0 -7.3715,-2.8981 -7.3715,-7.6234 0,-4.6308 2.6147,-7.5606 7.3715,-7.5606 4.7884,0 7.3715,2.9298 7.3715,7.5606 0,4.7253 -2.5831,7.6234 -7.3715,7.6234 z"
             id="path11" />
          <path
             id="polygon11"
             d="m 158.6541,0.693 v 5.4498 h 8.1276 v 19.752 h 6.4263 V 6.1428 h 8.0961 V 0.693 Z" />
          <path
             d="m 149.298,16.2552 c 0,3.2761 -2.0162,4.5993 -5.45,4.5993 -3.3392,0 -5.5128,-1.3861 -5.5128,-4.5993 V 0.693 h -6.4265 v 16.2867 c 0,7.2769 6.4895,9.5451 11.9393,9.5451 5.4184,0 11.8763,-2.2682 11.8763,-9.5451 V 0.693 h -6.4264 v 15.5622 z"
             id="path12" />
          <path
             d="m 113.102,0.693 -9.6711,25.2018 h 6.647 l 1.6881,-4.7253 h 10.7958 l 1.6605,4.7253 h 6.8675 L 121.2927,0.693 h -8.1906 z m 0.5772,15.1211 3.5294,-9.8794 3.4715,9.8794 z"
             id="path13" />
        </g>
      </g>
      <g
         id="d">
        <g
           clip-path="#e"
           id="g28">
          <g
             id="g13" />
          <g
             id="g14" />
          <g
             id="g15" />
          <g
             id="g16" />
          <g
             id="g17" />
          <g
             id="g18" />
          <g
             id="g19" />
          <g
             id="g20" />
          <g
             id="g21" />
          <g
             clip-path="#f"
             id="g22">
            <path
               d="m 13.6308,0.7255 0.02,-0.0339 64.1293,14.1717 h 6.6615 V 77.6914 H 11.9881 c -2.513,0 -4.5502,-2.0372 -4.5502,-4.5502 v -6.1561 z"
               fill="#36697f"
               id="path21"
               style="fill:#0c3d91;fill-opacity:1" />
            <path
               d="M 78.2288,63.6907 H 13.6308 V 0.7255 l 0.0199,-0.0379 h 60.0279 c 2.513,0 4.5502,2.0372 4.5502,4.5502 z"
               fill="#37a5cc"
               id="path22"
               style="fill:#186bff;fill-opacity:1" />
            <path
               id="polygon22"
               style="fill:#679ae7;fill-opacity:1"
               d="M 0,8.913 V 71.9161 L 13.6507,63.6907 V 0.6876 Z" />
          </g>
          <g
             clip-path="#g"
             id="g23" />
          <g
             id="g24" />
          <g
             id="g25" />
          <g
             id="g26" />
          <g
             id="g27" />
        </g>
      </g>
    </g>
    <path
       d="m 240.73401,181.26304 v 21.79554 a 30.700989,30.700989 0 0 1 -14.53107,3.11334 c -12.66376,0 -22.62664,-3.73508 -30.51497,-20.13344 l -17.43712,-35.29249 h -15.98389 v 52.31135 H 125.93823 V 57.747876 h 55.01101 c 31.55329,0 52.72753,15.154882 52.72753,39.442024 v 13.07824 c 0,14.32173 -8.92665,25.53437 -23.04322,32.58953 l 16.19114,30.51706 a 12.354139,12.354139 0 0 0 12.24926,7.88831 z m -78.46705,-54.38929 h 15.77665 c 11.62335,0 19.30443,-6.01891 19.30443,-17.22902 V 99.266541 c 0,-11.001655 -7.88832,-16.604833 -19.30443,-16.604833 h -15.77665 z"
       fill="#ffffff"
       id="path13-4"
       style="stroke-width:4.1616" />
    <path
       d="m 447.14163,215.09276 h -15.00006 v 39.57376 H 414.13976 V 154.65869 h 33.71509 c 21.00198,0 35.00386,9.99991 35.00386,26.43004 v 7.43036 c 0,11.14336 -7.00018,19.14331 -18.14355,23.43022 l 23.00002,42.71721 h -19.71486 z m -15.00006,-13.42872 h 15.14333 c 10.71313,0 17.43026,-4.85648 17.43026,-13.57399 v -6.14443 c 0,-9.0001 -6.85843,-13.71327 -17.57353,-13.71327 h -15.00006 z"
       id="path1"
       style="stroke-width:3.969" />
    <path
       d="m 560.63015,222.23616 h -49.00056 c 0.2846,14.56981 6.99976,21.00003 20.1431,21.00003 a 39.610665,39.610662 0 0 0 20.28715,-6.28648 l 6.28694,10.57342 a 47.823723,47.82372 0 0 1 -27.71556,9.00009 c -23.14526,0 -36.28859,-15.28699 -36.28859,-35.86076 v -7.85862 c 0,-20.57333 12.85956,-36.14335 34.00205,-36.14335 20.715,0 32.85861,12.85681 32.85861,37.00026 a 71.358729,71.358729 0 0 1 -0.57314,8.57541 z m -15.28666,-12.28682 c 0,-13.14337 -5.85664,-20.28679 -16.85673,-20.28679 -10.85838,0 -16.57378,7.1442 -16.85834,21 h 33.71507 z"
       id="path2"
       style="stroke-width:3.969" />
    <path
       d="m 612.45777,254.66652 h -21.8585 l -24.71695,-76.00405 h 18.43005 l 17.5724,61.86052 17.5716,-61.86052 h 17.7152 z"
       id="path3"
       style="stroke-width:3.969" />
    <path
       d="m 673.61337,178.66247 v 76.00405 h -17.7153 v -62.86071 h -11.4307 v -13.14334 z m -20.2872,-22.43046 a 10.716312,10.716312 0 1 1 21.4303,0 10.716312,10.716312 0 0 1 -21.4303,0 z"
       id="path4"
       style="stroke-width:3.969" />
    <path
       d="m 733.13457,254.66652 a 51.373205,51.373202 0 0 1 -13.2867,1.8567 c -14.5737,0 -23.0019,-6.42978 -23.0019,-20.71823 v -43.99918 h -11.5725 v -13.14334 h 12.0003 l 1.4289,-18.71707 h 15.8566 v 18.71707 h 16.4316 v 13.14334 h -16.4316 v 42.99938 c 0,5.57374 3.0002,8.14365 9.2874,8.14365 a 39.630907,39.630904 0 0 0 7.4304,-0.71442 z"
       id="path5"
       style="stroke-width:3.969" />
  </g>
</svg>
